# xmcd
#
# Track frame offsets:
#	150
#	12366
#	24231
#	37665
#	48348
#	58188
#	67610
#	78003
#	89179
#	99514
#	109836
#
# Disc length: 1628 seconds
#
# Revision: 0
# Processed by: cddbd v1.5.2PL0 Copyright (c) Steve Scherf et al.
# Submitted via: EasyCDDAExtractor 12.0.1.1
#
DISCID=7a065a0b
DTITLE=Mandrell, Barbara - The Midnight Oil
DYEAR=1973
DGENRE=Country
TTITLE0=The Midnight Oil
TTITLE1=Give a Little, Take a Little
TTITLE2=Jamestown Ferry
TTITLE3=Show Me
TTITLE4=In the Name of Love
TTITLE5=Tonight My Baby's Coming Home
TTITLE6=Ain't It Good
TTITLE7=Satisfied
TTITLE8=Holdin' On (To the Love I Got)
TTITLE9=Smile Somebody Loves You
TTITLE10=We're Gonna Hold On
EXTD=
EXTT0=
EXTT1=
EXTT2=
EXTT3=
EXTT4=
EXTT5=
EXTT6=
EXTT7=
EXTT8=
EXTT9=
EXTT10=
PLAYORDER=
